<?xml version="1.0" standalone="no"?>
<!DOCTYPE svg PUBLIC "-//W3C//DTD SVG 20010904//EN"
 "http://www.w3.org/TR/2001/REC-SVG-20010904/DTD/svg10.dtd">
<svg version="1.0" xmlns="http://www.w3.org/2000/svg"
 width="700.000000pt" height="700.000000pt" viewBox="0 0 700.000000 700.000000"
 preserveAspectRatio="xMidYMid meet">
<metadata>
Created by potrace 1.11, written by Peter Selinger 2001-2013
</metadata>
<g transform="translate(0.000000,700.000000) scale(0.100000,-0.100000)"
fill="#000000" stroke="none">
<path d="M1489 6985 c-174 -27 -325 -74 -489 -152 -497 -234 -844 -676 -972
-1238 l-22 -100 -4 -1915 c-2 -1365 0 -1944 8 -2015 82 -733 609 -1335 1325
-1514 206 -52 175 -51 2187 -51 2038 0 1960 -2 2178 56 648 174 1132 690 1272
1359 l23 110 0 1980 0 1980 -23 105 c-156 711 -661 1217 -1378 1382 l-99 22
-1960 2 c-1607 2 -1976 0 -2046 -11z m3651 -708 c587 -109 1033 -559 1136
-1147 18 -99 19 -190 19 -1630 0 -1440 -1 -1531 -19 -1630 -104 -592 -555
-1043 -1146 -1147 -99 -17 -192 -18 -1650 -18 l-1545 0 -101 22 c-304 68 -510
178 -720 388 -204 204 -321 420 -386 715 l-23 105 0 1545 c0 1450 1 1551 18
1650 110 631 619 1102 1254 1160 48 4 758 7 1578 6 1373 -2 1497 -3 1585 -19z"/>
<path d="M1925 5725 c-294 -65 -526 -274 -627 -565 l-33 -95 0 -1555 0 -1555
23 -80 c66 -228 226 -421 437 -525 186 -93 21 -85 1747 -88 1664 -3 1587 -5
1734 54 112 44 202 104 288 189 96 96 162 201 208 335 l33 95 0 1565 0 1565
-33 95 c-90 261 -281 452 -542 542 l-95 33 -1540 2 c-1250 1 -1551 -1 -1600
-12z m3185 -383 c284 -110 349 -489 120 -696 -275 -248 -718 -25 -687 346 10
121 93 257 194 319 100 62 259 75 373 31z m-1370 -468 c295 -46 609 -222 809
-453 228 -265 343 -575 343 -921 0 -343 -109 -640 -334 -907 -357 -427 -962
-595 -1497 -416 -116 38 -245 101 -336 162 l-60 41 -3 -280 -2 -280 -281 0
-280 0 3 918 c4 907 4 918 26 1025 105 500 441 889 914 1056 217 76 444 94
698 55z"/>
<path d="M3325 4326 c-297 -69 -527 -276 -627 -566 -32 -92 -33 -100 -33 -260
0 -160 1 -168 33 -260 100 -290 339 -504 631 -566 85 -18 257 -18 342 0 158
34 305 114 423 231 97 96 162 201 208 335 32 92 33 100 33 260 0 160 -1 168
-33 260 -46 133 -111 238 -207 335 -97 96 -203 162 -335 206 -86 29 -109 33
-235 35 -94 3 -160 -1 -200 -10z"/>
</g>
</svg>
